<mxfile host="Electron" modified="2023-12-03T12:00:34.729Z" agent="Mozilla/5.0 (Windows NT 10.0; Win64; x64) AppleWebKit/537.36 (KHTML, like Gecko) draw.io/22.0.2 Chrome/114.0.5735.289 Electron/25.8.4 Safari/537.36" etag="mo9zGgMWNAxDrHv4W6TC" version="22.0.2" type="device">
  <diagram name="Page-1" id="tV89QdHwvv8chUVElJ16">
    <mxGraphModel dx="792" dy="827" grid="1" gridSize="10" guides="1" tooltips="1" connect="1" arrows="1" fold="1" page="1" pageScale="1" pageWidth="850" pageHeight="1100" math="0" shadow="0">
      <root>
        <mxCell id="0" />
        <mxCell id="1" parent="0" />
        <mxCell id="_bVBFPzJAJngSoGrFBX7-27" style="edgeStyle=entityRelationEdgeStyle;rounded=0;orthogonalLoop=1;jettySize=auto;html=1;exitX=0.5;exitY=0.5;exitDx=0;exitDy=0;exitPerimeter=0;entryX=0;entryY=0.5;entryDx=0;entryDy=0;" edge="1" parent="1" source="_bVBFPzJAJngSoGrFBX7-1" target="_bVBFPzJAJngSoGrFBX7-4">
          <mxGeometry relative="1" as="geometry" />
        </mxCell>
        <mxCell id="_bVBFPzJAJngSoGrFBX7-28" style="edgeStyle=entityRelationEdgeStyle;rounded=0;orthogonalLoop=1;jettySize=auto;html=1;exitX=0.5;exitY=0.5;exitDx=0;exitDy=0;exitPerimeter=0;entryX=0;entryY=0.5;entryDx=0;entryDy=0;" edge="1" parent="1" source="_bVBFPzJAJngSoGrFBX7-1" target="_bVBFPzJAJngSoGrFBX7-6">
          <mxGeometry relative="1" as="geometry" />
        </mxCell>
        <mxCell id="_bVBFPzJAJngSoGrFBX7-29" style="rounded=0;orthogonalLoop=1;jettySize=auto;html=1;exitX=0.5;exitY=0.5;exitDx=0;exitDy=0;exitPerimeter=0;entryX=0;entryY=0.5;entryDx=0;entryDy=0;edgeStyle=entityRelationEdgeStyle;" edge="1" parent="1" source="_bVBFPzJAJngSoGrFBX7-1" target="_bVBFPzJAJngSoGrFBX7-7">
          <mxGeometry relative="1" as="geometry" />
        </mxCell>
        <mxCell id="_bVBFPzJAJngSoGrFBX7-30" style="edgeStyle=entityRelationEdgeStyle;rounded=0;orthogonalLoop=1;jettySize=auto;html=1;exitX=0.5;exitY=0.5;exitDx=0;exitDy=0;exitPerimeter=0;entryX=0;entryY=0.5;entryDx=0;entryDy=0;" edge="1" parent="1" source="_bVBFPzJAJngSoGrFBX7-1" target="_bVBFPzJAJngSoGrFBX7-10">
          <mxGeometry relative="1" as="geometry" />
        </mxCell>
        <mxCell id="_bVBFPzJAJngSoGrFBX7-31" style="edgeStyle=entityRelationEdgeStyle;rounded=0;orthogonalLoop=1;jettySize=auto;html=1;exitX=0.5;exitY=0.5;exitDx=0;exitDy=0;exitPerimeter=0;entryX=0;entryY=0.5;entryDx=0;entryDy=0;" edge="1" parent="1" source="_bVBFPzJAJngSoGrFBX7-1" target="_bVBFPzJAJngSoGrFBX7-11">
          <mxGeometry relative="1" as="geometry" />
        </mxCell>
        <mxCell id="_bVBFPzJAJngSoGrFBX7-48" style="edgeStyle=entityRelationEdgeStyle;rounded=0;orthogonalLoop=1;jettySize=auto;html=1;exitX=0.5;exitY=0.5;exitDx=0;exitDy=0;exitPerimeter=0;entryX=0;entryY=0.5;entryDx=0;entryDy=0;" edge="1" parent="1" source="_bVBFPzJAJngSoGrFBX7-1" target="_bVBFPzJAJngSoGrFBX7-20">
          <mxGeometry relative="1" as="geometry" />
        </mxCell>
        <mxCell id="_bVBFPzJAJngSoGrFBX7-49" style="edgeStyle=entityRelationEdgeStyle;rounded=0;orthogonalLoop=1;jettySize=auto;html=1;exitX=0.5;exitY=0.5;exitDx=0;exitDy=0;exitPerimeter=0;entryX=0;entryY=0.5;entryDx=0;entryDy=0;" edge="1" parent="1" source="_bVBFPzJAJngSoGrFBX7-1" target="_bVBFPzJAJngSoGrFBX7-19">
          <mxGeometry relative="1" as="geometry" />
        </mxCell>
        <mxCell id="_bVBFPzJAJngSoGrFBX7-51" style="edgeStyle=entityRelationEdgeStyle;rounded=0;orthogonalLoop=1;jettySize=auto;html=1;exitX=0.5;exitY=0.5;exitDx=0;exitDy=0;exitPerimeter=0;entryX=0;entryY=0.5;entryDx=0;entryDy=0;" edge="1" parent="1" source="_bVBFPzJAJngSoGrFBX7-1" target="_bVBFPzJAJngSoGrFBX7-12">
          <mxGeometry relative="1" as="geometry" />
        </mxCell>
        <mxCell id="_bVBFPzJAJngSoGrFBX7-54" style="edgeStyle=entityRelationEdgeStyle;rounded=0;orthogonalLoop=1;jettySize=auto;html=1;exitX=0.5;exitY=0.5;exitDx=0;exitDy=0;exitPerimeter=0;entryX=0;entryY=0.5;entryDx=0;entryDy=0;" edge="1" parent="1" source="_bVBFPzJAJngSoGrFBX7-1" target="_bVBFPzJAJngSoGrFBX7-14">
          <mxGeometry relative="1" as="geometry" />
        </mxCell>
        <mxCell id="_bVBFPzJAJngSoGrFBX7-55" style="edgeStyle=entityRelationEdgeStyle;rounded=0;orthogonalLoop=1;jettySize=auto;html=1;exitX=0.5;exitY=0.5;exitDx=0;exitDy=0;exitPerimeter=0;entryX=0;entryY=0.5;entryDx=0;entryDy=0;" edge="1" parent="1" source="_bVBFPzJAJngSoGrFBX7-1" target="_bVBFPzJAJngSoGrFBX7-15">
          <mxGeometry relative="1" as="geometry" />
        </mxCell>
        <mxCell id="_bVBFPzJAJngSoGrFBX7-56" style="edgeStyle=entityRelationEdgeStyle;rounded=0;orthogonalLoop=1;jettySize=auto;html=1;exitX=0.5;exitY=0.5;exitDx=0;exitDy=0;exitPerimeter=0;entryX=0;entryY=0.5;entryDx=0;entryDy=0;" edge="1" parent="1" source="_bVBFPzJAJngSoGrFBX7-1" target="_bVBFPzJAJngSoGrFBX7-16">
          <mxGeometry relative="1" as="geometry" />
        </mxCell>
        <mxCell id="_bVBFPzJAJngSoGrFBX7-57" style="edgeStyle=entityRelationEdgeStyle;rounded=0;orthogonalLoop=1;jettySize=auto;html=1;exitX=0.5;exitY=0.5;exitDx=0;exitDy=0;exitPerimeter=0;" edge="1" parent="1" source="_bVBFPzJAJngSoGrFBX7-1" target="_bVBFPzJAJngSoGrFBX7-17">
          <mxGeometry relative="1" as="geometry" />
        </mxCell>
        <mxCell id="_bVBFPzJAJngSoGrFBX7-58" style="edgeStyle=entityRelationEdgeStyle;rounded=0;orthogonalLoop=1;jettySize=auto;html=1;exitX=0.5;exitY=0.5;exitDx=0;exitDy=0;exitPerimeter=0;entryX=0;entryY=0.5;entryDx=0;entryDy=0;" edge="1" parent="1" source="_bVBFPzJAJngSoGrFBX7-1" target="_bVBFPzJAJngSoGrFBX7-21">
          <mxGeometry relative="1" as="geometry" />
        </mxCell>
        <mxCell id="_bVBFPzJAJngSoGrFBX7-59" style="edgeStyle=entityRelationEdgeStyle;rounded=0;orthogonalLoop=1;jettySize=auto;html=1;exitX=0.5;exitY=0.5;exitDx=0;exitDy=0;exitPerimeter=0;entryX=0;entryY=0.5;entryDx=0;entryDy=0;" edge="1" parent="1" source="_bVBFPzJAJngSoGrFBX7-1" target="_bVBFPzJAJngSoGrFBX7-22">
          <mxGeometry relative="1" as="geometry" />
        </mxCell>
        <mxCell id="_bVBFPzJAJngSoGrFBX7-60" style="edgeStyle=entityRelationEdgeStyle;rounded=0;orthogonalLoop=1;jettySize=auto;html=1;exitX=0.5;exitY=0.5;exitDx=0;exitDy=0;exitPerimeter=0;entryX=0;entryY=0.5;entryDx=0;entryDy=0;" edge="1" parent="1" source="_bVBFPzJAJngSoGrFBX7-1" target="_bVBFPzJAJngSoGrFBX7-23">
          <mxGeometry relative="1" as="geometry" />
        </mxCell>
        <mxCell id="_bVBFPzJAJngSoGrFBX7-61" style="edgeStyle=entityRelationEdgeStyle;rounded=0;orthogonalLoop=1;jettySize=auto;html=1;exitX=0.5;exitY=0.5;exitDx=0;exitDy=0;exitPerimeter=0;entryX=0;entryY=0.5;entryDx=0;entryDy=0;" edge="1" parent="1" source="_bVBFPzJAJngSoGrFBX7-1" target="_bVBFPzJAJngSoGrFBX7-24">
          <mxGeometry relative="1" as="geometry" />
        </mxCell>
        <mxCell id="_bVBFPzJAJngSoGrFBX7-1" value="User(Parent)" style="shape=umlActor;verticalLabelPosition=bottom;verticalAlign=top;html=1;outlineConnect=0;" vertex="1" parent="1">
          <mxGeometry x="110" y="80" width="50" height="90" as="geometry" />
        </mxCell>
        <mxCell id="_bVBFPzJAJngSoGrFBX7-3" value="LD â€“Little Dreamers&amp;nbsp;" style="swimlane;whiteSpace=wrap;html=1;" vertex="1" parent="1">
          <mxGeometry x="240" y="40" width="800" height="1180" as="geometry" />
        </mxCell>
        <mxCell id="_bVBFPzJAJngSoGrFBX7-4" value="#1&lt;br&gt;Register" style="ellipse;whiteSpace=wrap;html=1;fillColor=#e1d5e7;strokeColor=#9673a6;" vertex="1" parent="_bVBFPzJAJngSoGrFBX7-3">
          <mxGeometry x="50" y="40" width="110" height="55" as="geometry" />
        </mxCell>
        <mxCell id="_bVBFPzJAJngSoGrFBX7-6" value="#2&lt;br&gt;log in" style="ellipse;whiteSpace=wrap;html=1;fillColor=#e1d5e7;strokeColor=#9673a6;" vertex="1" parent="_bVBFPzJAJngSoGrFBX7-3">
          <mxGeometry x="50" y="140" width="110" height="55" as="geometry" />
        </mxCell>
        <mxCell id="_bVBFPzJAJngSoGrFBX7-7" value="#3&lt;br&gt;Browse toys" style="ellipse;whiteSpace=wrap;html=1;fillColor=#fff2cc;strokeColor=#d6b656;" vertex="1" parent="_bVBFPzJAJngSoGrFBX7-3">
          <mxGeometry x="50" y="260" width="110" height="55" as="geometry" />
        </mxCell>
        <mxCell id="_bVBFPzJAJngSoGrFBX7-8" value="#3.1&lt;br&gt;Search for toys" style="ellipse;whiteSpace=wrap;html=1;fillColor=#fff2cc;strokeColor=#d6b656;gradientColor=#ffd966;" vertex="1" parent="_bVBFPzJAJngSoGrFBX7-3">
          <mxGeometry x="210" y="612.5" width="110" height="55" as="geometry" />
        </mxCell>
        <mxCell id="_bVBFPzJAJngSoGrFBX7-9" value="#3.2&lt;br&gt;Filter toys" style="ellipse;whiteSpace=wrap;html=1;fillColor=#fff2cc;strokeColor=#d6b656;gradientColor=#ffd966;" vertex="1" parent="_bVBFPzJAJngSoGrFBX7-3">
          <mxGeometry x="210" y="705" width="110" height="55" as="geometry" />
        </mxCell>
        <mxCell id="_bVBFPzJAJngSoGrFBX7-10" value="#4&lt;br&gt;View product details" style="ellipse;whiteSpace=wrap;html=1;fillColor=#fff2cc;strokeColor=#d6b656;" vertex="1" parent="_bVBFPzJAJngSoGrFBX7-3">
          <mxGeometry x="45" y="380" width="120" height="60" as="geometry" />
        </mxCell>
        <mxCell id="_bVBFPzJAJngSoGrFBX7-11" value="#5&lt;br&gt;Add toys to the shopping cart" style="ellipse;whiteSpace=wrap;html=1;fillColor=#d5e8d4;strokeColor=#82b366;" vertex="1" parent="_bVBFPzJAJngSoGrFBX7-3">
          <mxGeometry x="40" y="490" width="120" height="60" as="geometry" />
        </mxCell>
        <mxCell id="_bVBFPzJAJngSoGrFBX7-12" value="#8&lt;br&gt;Delete toys from the shopping cart" style="ellipse;whiteSpace=wrap;html=1;fillColor=#f8cecc;strokeColor=#b85450;" vertex="1" parent="_bVBFPzJAJngSoGrFBX7-3">
          <mxGeometry x="350" y="160" width="120" height="60" as="geometry" />
        </mxCell>
        <mxCell id="_bVBFPzJAJngSoGrFBX7-13" value="#9&lt;br&gt;Rate toys" style="ellipse;whiteSpace=wrap;html=1;fillColor=#e1d5e7;strokeColor=#9673a6;" vertex="1" parent="_bVBFPzJAJngSoGrFBX7-3">
          <mxGeometry x="350" y="255" width="120" height="60" as="geometry" />
        </mxCell>
        <mxCell id="_bVBFPzJAJngSoGrFBX7-14" value="#10&lt;br&gt;comment on toys" style="ellipse;whiteSpace=wrap;html=1;fillColor=#e1d5e7;strokeColor=#9673a6;" vertex="1" parent="_bVBFPzJAJngSoGrFBX7-3">
          <mxGeometry x="350" y="380" width="120" height="60" as="geometry" />
        </mxCell>
        <mxCell id="_bVBFPzJAJngSoGrFBX7-16" value="#12&lt;br&gt;View frequently asked questions (FAQ)" style="ellipse;whiteSpace=wrap;html=1;fillColor=#fff2cc;strokeColor=#d6b656;" vertex="1" parent="_bVBFPzJAJngSoGrFBX7-3">
          <mxGeometry x="350" y="580" width="120" height="60" as="geometry" />
        </mxCell>
        <mxCell id="_bVBFPzJAJngSoGrFBX7-19" value="#7&lt;br&gt;Edit toys in the shopping cart" style="ellipse;whiteSpace=wrap;html=1;fillColor=#dae8fc;strokeColor=#6c8ebf;" vertex="1" parent="_bVBFPzJAJngSoGrFBX7-3">
          <mxGeometry x="350" y="60" width="120" height="60" as="geometry" />
        </mxCell>
        <mxCell id="_bVBFPzJAJngSoGrFBX7-20" value="#6&lt;br&gt;View toys in the shopping cart" style="ellipse;whiteSpace=wrap;html=1;fillColor=#fff2cc;strokeColor=#d6b656;" vertex="1" parent="_bVBFPzJAJngSoGrFBX7-3">
          <mxGeometry x="40" y="610" width="120" height="60" as="geometry" />
        </mxCell>
        <mxCell id="_bVBFPzJAJngSoGrFBX7-15" value="#11&lt;br&gt;comment on toys" style="ellipse;whiteSpace=wrap;html=1;fillColor=#e1d5e7;strokeColor=#9673a6;" vertex="1" parent="_bVBFPzJAJngSoGrFBX7-3">
          <mxGeometry x="350" y="490" width="120" height="60" as="geometry" />
        </mxCell>
        <mxCell id="_bVBFPzJAJngSoGrFBX7-17" value="#13&lt;br&gt;View product&#39;s policies" style="ellipse;whiteSpace=wrap;html=1;fillColor=#fff2cc;strokeColor=#d6b656;" vertex="1" parent="_bVBFPzJAJngSoGrFBX7-3">
          <mxGeometry x="540" y="100" width="120" height="60" as="geometry" />
        </mxCell>
        <mxCell id="_bVBFPzJAJngSoGrFBX7-21" value="#14&lt;br&gt;Add a child page" style="ellipse;whiteSpace=wrap;html=1;fillColor=#d5e8d4;strokeColor=#82b366;" vertex="1" parent="_bVBFPzJAJngSoGrFBX7-3">
          <mxGeometry x="540" y="200" width="120" height="60" as="geometry" />
        </mxCell>
        <mxCell id="_bVBFPzJAJngSoGrFBX7-22" value="#15&lt;br&gt;Answer a child form" style="ellipse;whiteSpace=wrap;html=1;fillColor=#e1d5e7;strokeColor=#9673a6;" vertex="1" parent="_bVBFPzJAJngSoGrFBX7-3">
          <mxGeometry x="540" y="310" width="120" height="60" as="geometry" />
        </mxCell>
        <mxCell id="_bVBFPzJAJngSoGrFBX7-23" value="#16&lt;br&gt;view a child page" style="ellipse;whiteSpace=wrap;html=1;fillColor=#fff2cc;strokeColor=#d6b656;" vertex="1" parent="_bVBFPzJAJngSoGrFBX7-3">
          <mxGeometry x="540" y="430" width="120" height="60" as="geometry" />
        </mxCell>
        <mxCell id="_bVBFPzJAJngSoGrFBX7-24" value="#17&lt;br&gt;View recommendations" style="ellipse;whiteSpace=wrap;html=1;fillColor=#fff2cc;strokeColor=#d6b656;" vertex="1" parent="_bVBFPzJAJngSoGrFBX7-3">
          <mxGeometry x="540" y="550" width="120" height="60" as="geometry" />
        </mxCell>
        <mxCell id="_bVBFPzJAJngSoGrFBX7-33" value="#18&lt;br&gt;Add toys" style="ellipse;whiteSpace=wrap;html=1;fillColor=#d5e8d4;strokeColor=#82b366;" vertex="1" parent="_bVBFPzJAJngSoGrFBX7-3">
          <mxGeometry x="40" y="760" width="120" height="60" as="geometry" />
        </mxCell>
        <mxCell id="_bVBFPzJAJngSoGrFBX7-34" value="#20&lt;br&gt;View toys" style="ellipse;whiteSpace=wrap;html=1;fillColor=#fff2cc;strokeColor=#d6b656;" vertex="1" parent="_bVBFPzJAJngSoGrFBX7-3">
          <mxGeometry x="40" y="960" width="120" height="60" as="geometry" />
        </mxCell>
        <mxCell id="_bVBFPzJAJngSoGrFBX7-35" value="#19&lt;br&gt;edit toys" style="ellipse;whiteSpace=wrap;html=1;fillColor=#dae8fc;strokeColor=#6c8ebf;" vertex="1" parent="_bVBFPzJAJngSoGrFBX7-3">
          <mxGeometry x="40" y="850" width="120" height="60" as="geometry" />
        </mxCell>
        <mxCell id="_bVBFPzJAJngSoGrFBX7-36" value="#21&lt;br&gt;Delete toys" style="ellipse;whiteSpace=wrap;html=1;fillColor=#f8cecc;strokeColor=#b85450;" vertex="1" parent="_bVBFPzJAJngSoGrFBX7-3">
          <mxGeometry x="40" y="1070" width="120" height="60" as="geometry" />
        </mxCell>
        <mxCell id="_bVBFPzJAJngSoGrFBX7-37" value="#22&lt;br&gt;Send an email of toys statistics." style="ellipse;whiteSpace=wrap;html=1;fillColor=#e1d5e7;strokeColor=#9673a6;" vertex="1" parent="_bVBFPzJAJngSoGrFBX7-3">
          <mxGeometry x="300" y="890" width="120" height="60" as="geometry" />
        </mxCell>
        <mxCell id="_bVBFPzJAJngSoGrFBX7-62" value="" style="endArrow=none;dashed=1;html=1;rounded=0;exitX=0.973;exitY=0.291;exitDx=0;exitDy=0;entryX=0.5;entryY=0;entryDx=0;entryDy=0;fillColor=#e3c800;strokeColor=#B09500;strokeWidth=3;exitPerimeter=0;" edge="1" parent="_bVBFPzJAJngSoGrFBX7-3" source="_bVBFPzJAJngSoGrFBX7-7" target="_bVBFPzJAJngSoGrFBX7-8">
          <mxGeometry width="50" height="50" relative="1" as="geometry">
            <mxPoint x="170" y="230" as="sourcePoint" />
            <mxPoint x="220" y="180" as="targetPoint" />
          </mxGeometry>
        </mxCell>
        <mxCell id="_bVBFPzJAJngSoGrFBX7-63" value="" style="endArrow=none;dashed=1;html=1;rounded=0;exitX=0.964;exitY=0.727;exitDx=0;exitDy=0;entryX=0.018;entryY=0.4;entryDx=0;entryDy=0;fillColor=#e3c800;strokeColor=#B09500;strokeWidth=3;exitPerimeter=0;entryPerimeter=0;" edge="1" parent="_bVBFPzJAJngSoGrFBX7-3" source="_bVBFPzJAJngSoGrFBX7-7" target="_bVBFPzJAJngSoGrFBX7-9">
          <mxGeometry width="50" height="50" relative="1" as="geometry">
            <mxPoint x="167" y="286" as="sourcePoint" />
            <mxPoint x="220" y="243" as="targetPoint" />
          </mxGeometry>
        </mxCell>
        <mxCell id="_bVBFPzJAJngSoGrFBX7-64" value="&lt;b&gt;Extends&lt;/b&gt;" style="text;html=1;align=center;verticalAlign=middle;resizable=0;points=[];autosize=1;" vertex="1" parent="_bVBFPzJAJngSoGrFBX7-3">
          <mxGeometry x="210" y="540" width="70" height="30" as="geometry" />
        </mxCell>
        <mxCell id="_bVBFPzJAJngSoGrFBX7-65" value="&lt;b&gt;Extends&lt;/b&gt;" style="text;html=1;align=center;verticalAlign=middle;resizable=0;points=[];autosize=1;" vertex="1" parent="_bVBFPzJAJngSoGrFBX7-3">
          <mxGeometry x="180" y="670" width="70" height="30" as="geometry" />
        </mxCell>
        <mxCell id="_bVBFPzJAJngSoGrFBX7-41" style="edgeStyle=entityRelationEdgeStyle;rounded=0;orthogonalLoop=1;jettySize=auto;html=1;exitX=0.5;exitY=0.5;exitDx=0;exitDy=0;exitPerimeter=0;entryX=0;entryY=0.5;entryDx=0;entryDy=0;" edge="1" parent="1" source="_bVBFPzJAJngSoGrFBX7-32" target="_bVBFPzJAJngSoGrFBX7-33">
          <mxGeometry relative="1" as="geometry" />
        </mxCell>
        <mxCell id="_bVBFPzJAJngSoGrFBX7-42" style="edgeStyle=entityRelationEdgeStyle;rounded=0;orthogonalLoop=1;jettySize=auto;html=1;exitX=0.5;exitY=0.5;exitDx=0;exitDy=0;exitPerimeter=0;entryX=0;entryY=0.5;entryDx=0;entryDy=0;" edge="1" parent="1" source="_bVBFPzJAJngSoGrFBX7-32" target="_bVBFPzJAJngSoGrFBX7-35">
          <mxGeometry relative="1" as="geometry" />
        </mxCell>
        <mxCell id="_bVBFPzJAJngSoGrFBX7-43" style="edgeStyle=entityRelationEdgeStyle;rounded=0;orthogonalLoop=1;jettySize=auto;html=1;exitX=0.5;exitY=0.5;exitDx=0;exitDy=0;exitPerimeter=0;entryX=0;entryY=0.5;entryDx=0;entryDy=0;" edge="1" parent="1" source="_bVBFPzJAJngSoGrFBX7-32" target="_bVBFPzJAJngSoGrFBX7-34">
          <mxGeometry relative="1" as="geometry" />
        </mxCell>
        <mxCell id="_bVBFPzJAJngSoGrFBX7-44" style="edgeStyle=entityRelationEdgeStyle;rounded=0;orthogonalLoop=1;jettySize=auto;html=1;exitX=0.5;exitY=0.5;exitDx=0;exitDy=0;exitPerimeter=0;entryX=0;entryY=0.5;entryDx=0;entryDy=0;" edge="1" parent="1" source="_bVBFPzJAJngSoGrFBX7-32" target="_bVBFPzJAJngSoGrFBX7-36">
          <mxGeometry relative="1" as="geometry" />
        </mxCell>
        <mxCell id="_bVBFPzJAJngSoGrFBX7-46" style="edgeStyle=entityRelationEdgeStyle;rounded=0;orthogonalLoop=1;jettySize=auto;html=1;exitX=0.5;exitY=0.5;exitDx=0;exitDy=0;exitPerimeter=0;" edge="1" parent="1" source="_bVBFPzJAJngSoGrFBX7-32" target="_bVBFPzJAJngSoGrFBX7-37">
          <mxGeometry relative="1" as="geometry" />
        </mxCell>
        <mxCell id="_bVBFPzJAJngSoGrFBX7-32" value="Store owner" style="shape=umlActor;verticalLabelPosition=bottom;verticalAlign=top;html=1;outlineConnect=0;" vertex="1" parent="1">
          <mxGeometry x="110" y="920" width="50" height="90" as="geometry" />
        </mxCell>
        <mxCell id="_bVBFPzJAJngSoGrFBX7-45" style="edgeStyle=entityRelationEdgeStyle;rounded=0;orthogonalLoop=1;jettySize=auto;html=1;exitX=0.5;exitY=0.5;exitDx=0;exitDy=0;exitPerimeter=0;entryX=1;entryY=0.5;entryDx=0;entryDy=0;" edge="1" parent="1" source="_bVBFPzJAJngSoGrFBX7-39" target="_bVBFPzJAJngSoGrFBX7-37">
          <mxGeometry relative="1" as="geometry" />
        </mxCell>
        <mxCell id="_bVBFPzJAJngSoGrFBX7-39" value="LD System" style="shape=umlActor;verticalLabelPosition=bottom;verticalAlign=top;html=1;outlineConnect=0;" vertex="1" parent="1">
          <mxGeometry x="1110" y="860" width="50" height="100" as="geometry" />
        </mxCell>
      </root>
    </mxGraphModel>
  </diagram>
</mxfile>
